ISO-10303-21;
HEADER;
/* Generated by software containing ST-Developer
 * from STEP Tools, Inc. (www.steptools.com) 
 */
/* OPTION: using custom renumber hook */

FILE_DESCRIPTION(
/* description */ ('STEP AP242 Edition 2',
'CAx-IF Rec.Pracs.---Representation and Presentation of Product Manufa
cturing Information (PMI)---4.0---2014-10-13',
'CAx-IF Rec.Pracs.---3D Tessellated Geometry---0.4---2014-09-14','2;1',
'CAx-IF Rec.Pracs.---User Defined Attributes---1.5---2016-08-15'),
/* implementation_level */ '2;1');

FILE_NAME(
/* name */ 'DOOR TOP',
/* time_stamp */ '2026-04-23T21:15:47Z',
/* author */ (''),
/* organization */ (''),
/* preprocessor_version */ 'ST-DEVELOPER v20',
/* originating_system */ 'ONSHAPE BY PTC INC, 1.213',
/* authorisation */ '  ');

FILE_SCHEMA (('AP242_MANAGED_MODEL_BASED_3D_ENGINEERING_MIM_LF { 1 0 10303 442 3 1 4 }'));
ENDSEC;

DATA;
#10=SHAPE_REPRESENTATION_RELATIONSHIP('','',#595,#11);
#11=ADVANCED_BREP_SHAPE_REPRESENTATION('',(#593),#937);
#12=ORIENTED_EDGE('',*,*,#164,.F.);
#13=ORIENTED_EDGE('',*,*,#165,.T.);
#14=ORIENTED_EDGE('',*,*,#166,.T.);
#15=ORIENTED_EDGE('',*,*,#167,.F.);
#16=ORIENTED_EDGE('',*,*,#168,.F.);
#17=ORIENTED_EDGE('',*,*,#169,.T.);
#18=ORIENTED_EDGE('',*,*,#170,.T.);
#19=ORIENTED_EDGE('',*,*,#171,.F.);
#20=ORIENTED_EDGE('',*,*,#172,.F.);
#21=ORIENTED_EDGE('',*,*,#173,.T.);
#22=ORIENTED_EDGE('',*,*,#174,.T.);
#23=ORIENTED_EDGE('',*,*,#175,.F.);
#24=ORIENTED_EDGE('',*,*,#176,.F.);
#25=ORIENTED_EDGE('',*,*,#177,.F.);
#26=ORIENTED_EDGE('',*,*,#164,.T.);
#27=ORIENTED_EDGE('',*,*,#178,.T.);
#28=ORIENTED_EDGE('',*,*,#179,.T.);
#29=ORIENTED_EDGE('',*,*,#180,.F.);
#30=ORIENTED_EDGE('',*,*,#165,.F.);
#31=ORIENTED_EDGE('',*,*,#177,.T.);
#32=ORIENTED_EDGE('',*,*,#181,.T.);
#33=ORIENTED_EDGE('',*,*,#182,.F.);
#34=ORIENTED_EDGE('',*,*,#166,.F.);
#35=ORIENTED_EDGE('',*,*,#180,.T.);
#36=ORIENTED_EDGE('',*,*,#183,.F.);
#37=ORIENTED_EDGE('',*,*,#178,.F.);
#38=ORIENTED_EDGE('',*,*,#167,.T.);
#39=ORIENTED_EDGE('',*,*,#182,.T.);
#40=ORIENTED_EDGE('',*,*,#176,.T.);
#41=ORIENTED_EDGE('',*,*,#183,.T.);
#42=ORIENTED_EDGE('',*,*,#181,.F.);
#43=ORIENTED_EDGE('',*,*,#179,.F.);
#44=ORIENTED_EDGE('',*,*,#169,.F.);
#45=ORIENTED_EDGE('',*,*,#184,.F.);
#46=ORIENTED_EDGE('',*,*,#185,.T.);
#47=ORIENTED_EDGE('',*,*,#186,.T.);
#48=ORIENTED_EDGE('',*,*,#168,.T.);
#49=ORIENTED_EDGE('',*,*,#187,.F.);
#50=ORIENTED_EDGE('',*,*,#188,.F.);
#51=ORIENTED_EDGE('',*,*,#184,.T.);
#52=ORIENTED_EDGE('',*,*,#171,.T.);
#53=ORIENTED_EDGE('',*,*,#189,.F.);
#54=ORIENTED_EDGE('',*,*,#190,.F.);
#55=ORIENTED_EDGE('',*,*,#187,.T.);
#56=ORIENTED_EDGE('',*,*,#170,.F.);
#57=ORIENTED_EDGE('',*,*,#186,.F.);
#58=ORIENTED_EDGE('',*,*,#191,.T.);
#59=ORIENTED_EDGE('',*,*,#189,.T.);
#60=ORIENTED_EDGE('',*,*,#173,.F.);
#61=ORIENTED_EDGE('',*,*,#192,.F.);
#62=ORIENTED_EDGE('',*,*,#193,.T.);
#63=ORIENTED_EDGE('',*,*,#194,.T.);
#64=ORIENTED_EDGE('',*,*,#172,.T.);
#65=ORIENTED_EDGE('',*,*,#195,.F.);
#66=ORIENTED_EDGE('',*,*,#196,.F.);
#67=ORIENTED_EDGE('',*,*,#192,.T.);
#68=ORIENTED_EDGE('',*,*,#175,.T.);
#69=ORIENTED_EDGE('',*,*,#197,.F.);
#70=ORIENTED_EDGE('',*,*,#198,.F.);
#71=ORIENTED_EDGE('',*,*,#195,.T.);
#72=ORIENTED_EDGE('',*,*,#174,.F.);
#73=ORIENTED_EDGE('',*,*,#194,.F.);
#74=ORIENTED_EDGE('',*,*,#199,.T.);
#75=ORIENTED_EDGE('',*,*,#197,.T.);
#76=ORIENTED_EDGE('',*,*,#200,.T.);
#77=ORIENTED_EDGE('',*,*,#201,.T.);
#78=ORIENTED_EDGE('',*,*,#202,.F.);
#79=ORIENTED_EDGE('',*,*,#203,.T.);
#80=ORIENTED_EDGE('',*,*,#202,.T.);
#81=ORIENTED_EDGE('',*,*,#204,.T.);
#82=ORIENTED_EDGE('',*,*,#205,.F.);
#83=ORIENTED_EDGE('',*,*,#206,.F.);
#84=ORIENTED_EDGE('',*,*,#205,.T.);
#85=ORIENTED_EDGE('',*,*,#207,.T.);
#86=ORIENTED_EDGE('',*,*,#208,.F.);
#87=ORIENTED_EDGE('',*,*,#209,.F.);
#88=ORIENTED_EDGE('',*,*,#208,.T.);
#89=ORIENTED_EDGE('',*,*,#210,.T.);
#90=ORIENTED_EDGE('',*,*,#200,.F.);
#91=ORIENTED_EDGE('',*,*,#211,.T.);
#92=ORIENTED_EDGE('',*,*,#203,.F.);
#93=ORIENTED_EDGE('',*,*,#206,.T.);
#94=ORIENTED_EDGE('',*,*,#209,.T.);
#95=ORIENTED_EDGE('',*,*,#211,.F.);
#96=ORIENTED_EDGE('',*,*,#212,.T.);
#97=ORIENTED_EDGE('',*,*,#213,.T.);
#98=ORIENTED_EDGE('',*,*,#214,.T.);
#99=ORIENTED_EDGE('',*,*,#215,.T.);
#100=ORIENTED_EDGE('',*,*,#193,.F.);
#101=ORIENTED_EDGE('',*,*,#196,.T.);
#102=ORIENTED_EDGE('',*,*,#198,.T.);
#103=ORIENTED_EDGE('',*,*,#199,.F.);
#104=ORIENTED_EDGE('',*,*,#216,.T.);
#105=ORIENTED_EDGE('',*,*,#217,.T.);
#106=ORIENTED_EDGE('',*,*,#218,.F.);
#107=ORIENTED_EDGE('',*,*,#219,.T.);
#108=ORIENTED_EDGE('',*,*,#218,.T.);
#109=ORIENTED_EDGE('',*,*,#220,.T.);
#110=ORIENTED_EDGE('',*,*,#221,.F.);
#111=ORIENTED_EDGE('',*,*,#222,.F.);
#112=ORIENTED_EDGE('',*,*,#221,.T.);
#113=ORIENTED_EDGE('',*,*,#223,.T.);
#114=ORIENTED_EDGE('',*,*,#224,.F.);
#115=ORIENTED_EDGE('',*,*,#225,.F.);
#116=ORIENTED_EDGE('',*,*,#224,.T.);
#117=ORIENTED_EDGE('',*,*,#226,.T.);
#118=ORIENTED_EDGE('',*,*,#216,.F.);
#119=ORIENTED_EDGE('',*,*,#227,.T.);
#120=ORIENTED_EDGE('',*,*,#219,.F.);
#121=ORIENTED_EDGE('',*,*,#222,.T.);
#122=ORIENTED_EDGE('',*,*,#225,.T.);
#123=ORIENTED_EDGE('',*,*,#227,.F.);
#124=ORIENTED_EDGE('',*,*,#228,.T.);
#125=ORIENTED_EDGE('',*,*,#229,.T.);
#126=ORIENTED_EDGE('',*,*,#230,.T.);
#127=ORIENTED_EDGE('',*,*,#231,.T.);
#128=ORIENTED_EDGE('',*,*,#185,.F.);
#129=ORIENTED_EDGE('',*,*,#188,.T.);
#130=ORIENTED_EDGE('',*,*,#190,.T.);
#131=ORIENTED_EDGE('',*,*,#191,.F.);
#132=ORIENTED_EDGE('',*,*,#232,.F.);
#133=ORIENTED_EDGE('',*,*,#215,.F.);
#134=ORIENTED_EDGE('',*,*,#233,.F.);
#135=ORIENTED_EDGE('',*,*,#201,.F.);
#136=ORIENTED_EDGE('',*,*,#233,.T.);
#137=ORIENTED_EDGE('',*,*,#214,.F.);
#138=ORIENTED_EDGE('',*,*,#234,.F.);
#139=ORIENTED_EDGE('',*,*,#204,.F.);
#140=ORIENTED_EDGE('',*,*,#232,.T.);
#141=ORIENTED_EDGE('',*,*,#210,.F.);
#142=ORIENTED_EDGE('',*,*,#235,.F.);
#143=ORIENTED_EDGE('',*,*,#212,.F.);
#144=ORIENTED_EDGE('',*,*,#234,.T.);
#145=ORIENTED_EDGE('',*,*,#213,.F.);
#146=ORIENTED_EDGE('',*,*,#235,.T.);
#147=ORIENTED_EDGE('',*,*,#207,.F.);
#148=ORIENTED_EDGE('',*,*,#236,.F.);
#149=ORIENTED_EDGE('',*,*,#220,.F.);
#150=ORIENTED_EDGE('',*,*,#237,.F.);
#151=ORIENTED_EDGE('',*,*,#231,.F.);
#152=ORIENTED_EDGE('',*,*,#237,.T.);
#153=ORIENTED_EDGE('',*,*,#217,.F.);
#154=ORIENTED_EDGE('',*,*,#238,.F.);
#155=ORIENTED_EDGE('',*,*,#228,.F.);
#156=ORIENTED_EDGE('',*,*,#236,.T.);
#157=ORIENTED_EDGE('',*,*,#230,.F.);
#158=ORIENTED_EDGE('',*,*,#239,.F.);
#159=ORIENTED_EDGE('',*,*,#223,.F.);
#160=ORIENTED_EDGE('',*,*,#238,.T.);
#161=ORIENTED_EDGE('',*,*,#226,.F.);
#162=ORIENTED_EDGE('',*,*,#239,.T.);
#163=ORIENTED_EDGE('',*,*,#229,.F.);
#164=EDGE_CURVE('',#240,#241,#288,.T.);
#165=EDGE_CURVE('',#240,#242,#289,.T.);
#166=EDGE_CURVE('',#242,#243,#290,.T.);
#167=EDGE_CURVE('',#241,#243,#291,.T.);
#168=EDGE_CURVE('',#244,#245,#292,.T.);
#169=EDGE_CURVE('',#244,#246,#293,.T.);
#170=EDGE_CURVE('',#246,#247,#294,.T.);
#171=EDGE_CURVE('',#245,#247,#295,.T.);
#172=EDGE_CURVE('',#248,#249,#296,.T.);
#173=EDGE_CURVE('',#248,#250,#297,.T.);
#174=EDGE_CURVE('',#250,#251,#298,.T.);
#175=EDGE_CURVE('',#249,#251,#299,.T.);
#176=EDGE_CURVE('',#252,#253,#300,.T.);
#177=EDGE_CURVE('',#240,#252,#301,.T.);
#178=EDGE_CURVE('',#241,#253,#302,.T.);
#179=EDGE_CURVE('',#252,#254,#303,.T.);
#180=EDGE_CURVE('',#242,#254,#304,.T.);
#181=EDGE_CURVE('',#254,#255,#305,.T.);
#182=EDGE_CURVE('',#243,#255,#306,.T.);
#183=EDGE_CURVE('',#253,#255,#307,.T.);
#184=EDGE_CURVE('',#256,#244,#308,.T.);
#185=EDGE_CURVE('',#256,#257,#309,.T.);
#186=EDGE_CURVE('',#257,#246,#310,.T.);
#187=EDGE_CURVE('',#258,#245,#311,.T.);
#188=EDGE_CURVE('',#256,#258,#312,.T.);
#189=EDGE_CURVE('',#259,#247,#313,.T.);
#190=EDGE_CURVE('',#258,#259,#314,.T.);
#191=EDGE_CURVE('',#257,#259,#315,.T.);
#192=EDGE_CURVE('',#260,#248,#316,.T.);
#193=EDGE_CURVE('',#260,#261,#317,.T.);
#194=EDGE_CURVE('',#261,#250,#318,.T.);
#195=EDGE_CURVE('',#262,#249,#319,.T.);
#196=EDGE_CURVE('',#260,#262,#320,.T.);
#197=EDGE_CURVE('',#263,#251,#321,.T.);
#198=EDGE_CURVE('',#262,#263,#322,.T.);
#199=EDGE_CURVE('',#261,#263,#323,.T.);
#200=EDGE_CURVE('',#264,#265,#324,.T.);
#201=EDGE_CURVE('',#265,#266,#325,.T.);
#202=EDGE_CURVE('',#267,#266,#326,.T.);
#203=EDGE_CURVE('',#267,#264,#327,.T.);
#204=EDGE_CURVE('',#266,#268,#328,.T.);
#205=EDGE_CURVE('',#269,#268,#329,.T.);
#206=EDGE_CURVE('',#267,#269,#330,.T.);
#207=EDGE_CURVE('',#268,#270,#331,.T.);
#208=EDGE_CURVE('',#271,#270,#332,.T.);
#209=EDGE_CURVE('',#269,#271,#333,.T.);
#210=EDGE_CURVE('',#270,#265,#334,.T.);
#211=EDGE_CURVE('',#264,#271,#335,.T.);
#212=EDGE_CURVE('',#272,#273,#336,.T.);
#213=EDGE_CURVE('',#273,#274,#337,.T.);
#214=EDGE_CURVE('',#274,#275,#338,.T.);
#215=EDGE_CURVE('',#275,#272,#339,.T.);
#216=EDGE_CURVE('',#276,#277,#340,.T.);
#217=EDGE_CURVE('',#277,#278,#341,.T.);
#218=EDGE_CURVE('',#279,#278,#342,.T.);
#219=EDGE_CURVE('',#279,#276,#343,.T.);
#220=EDGE_CURVE('',#278,#280,#344,.T.);
#221=EDGE_CURVE('',#281,#280,#345,.T.);
#222=EDGE_CURVE('',#279,#281,#346,.T.);
#223=EDGE_CURVE('',#280,#282,#347,.T.);
#224=EDGE_CURVE('',#283,#282,#348,.T.);
#225=EDGE_CURVE('',#281,#283,#349,.T.);
#226=EDGE_CURVE('',#282,#277,#350,.T.);
#227=EDGE_CURVE('',#276,#283,#351,.T.);
#228=EDGE_CURVE('',#284,#285,#352,.T.);
#229=EDGE_CURVE('',#285,#286,#353,.T.);
#230=EDGE_CURVE('',#286,#287,#354,.T.);
#231=EDGE_CURVE('',#287,#284,#355,.T.);
#232=EDGE_CURVE('',#272,#265,#356,.F.);
#233=EDGE_CURVE('',#266,#275,#357,.F.);
#234=EDGE_CURVE('',#268,#274,#358,.F.);
#235=EDGE_CURVE('',#273,#270,#359,.T.);
#236=EDGE_CURVE('',#280,#287,#360,.T.);
#237=EDGE_CURVE('',#284,#278,#361,.T.);
#238=EDGE_CURVE('',#285,#277,#362,.F.);
#239=EDGE_CURVE('',#282,#286,#363,.T.);
#240=VERTEX_POINT('',#780);
#241=VERTEX_POINT('',#781);
#242=VERTEX_POINT('',#783);
#243=VERTEX_POINT('',#785);
#244=VERTEX_POINT('',#788);
#245=VERTEX_POINT('',#789);
#246=VERTEX_POINT('',#791);
#247=VERTEX_POINT('',#793);
#248=VERTEX_POINT('',#796);
#249=VERTEX_POINT('',#797);
#250=VERTEX_POINT('',#799);
#251=VERTEX_POINT('',#801);
#252=VERTEX_POINT('',#805);
#253=VERTEX_POINT('',#806);
#254=VERTEX_POINT('',#811);
#255=VERTEX_POINT('',#815);
#256=VERTEX_POINT('',#822);
#257=VERTEX_POINT('',#824);
#258=VERTEX_POINT('',#828);
#259=VERTEX_POINT('',#832);
#260=VERTEX_POINT('',#838);
#261=VERTEX_POINT('',#840);
#262=VERTEX_POINT('',#844);
#263=VERTEX_POINT('',#848);
#264=VERTEX_POINT('',#854);
#265=VERTEX_POINT('',#855);
#266=VERTEX_POINT('',#857);
#267=VERTEX_POINT('',#859);
#268=VERTEX_POINT('',#863);
#269=VERTEX_POINT('',#865);
#270=VERTEX_POINT('',#869);
#271=VERTEX_POINT('',#871);
#272=VERTEX_POINT('',#879);
#273=VERTEX_POINT('',#880);
#274=VERTEX_POINT('',#882);
#275=VERTEX_POINT('',#884);
#276=VERTEX_POINT('',#888);
#277=VERTEX_POINT('',#889);
#278=VERTEX_POINT('',#891);
#279=VERTEX_POINT('',#893);
#280=VERTEX_POINT('',#897);
#281=VERTEX_POINT('',#899);
#282=VERTEX_POINT('',#903);
#283=VERTEX_POINT('',#905);
#284=VERTEX_POINT('',#913);
#285=VERTEX_POINT('',#914);
#286=VERTEX_POINT('',#916);
#287=VERTEX_POINT('',#918);
#288=LINE('',#779,#364);
#289=LINE('',#782,#365);
#290=LINE('',#784,#366);
#291=LINE('',#786,#367);
#292=LINE('',#787,#368);
#293=LINE('',#790,#369);
#294=LINE('',#792,#370);
#295=LINE('',#794,#371);
#296=LINE('',#795,#372);
#297=LINE('',#798,#373);
#298=LINE('',#800,#374);
#299=LINE('',#802,#375);
#300=LINE('',#804,#376);
#301=LINE('',#807,#377);
#302=LINE('',#808,#378);
#303=LINE('',#810,#379);
#304=LINE('',#812,#380);
#305=LINE('',#814,#381);
#306=LINE('',#816,#382);
#307=LINE('',#818,#383);
#308=LINE('',#821,#384);
#309=LINE('',#823,#385);
#310=LINE('',#825,#386);
#311=LINE('',#827,#387);
#312=LINE('',#829,#388);
#313=LINE('',#831,#389);
#314=LINE('',#833,#390);
#315=LINE('',#835,#391);
#316=LINE('',#837,#392);
#317=LINE('',#839,#393);
#318=LINE('',#841,#394);
#319=LINE('',#843,#395);
#320=LINE('',#845,#396);
#321=LINE('',#847,#397);
#322=LINE('',#849,#398);
#323=LINE('',#851,#399);
#324=LINE('',#853,#400);
#325=LINE('',#856,#401);
#326=LINE('',#858,#402);
#327=LINE('',#860,#403);
#328=LINE('',#862,#404);
#329=LINE('',#864,#405);
#330=LINE('',#866,#406);
#331=LINE('',#868,#407);
#332=LINE('',#870,#408);
#333=LINE('',#872,#409);
#334=LINE('',#874,#410);
#335=LINE('',#875,#411);
#336=LINE('',#878,#412);
#337=LINE('',#881,#413);
#338=LINE('',#883,#414);
#339=LINE('',#885,#415);
#340=LINE('',#887,#416);
#341=LINE('',#890,#417);
#342=LINE('',#892,#418);
#343=LINE('',#894,#419);
#344=LINE('',#896,#420);
#345=LINE('',#898,#421);
#346=LINE('',#900,#422);
#347=LINE('',#902,#423);
#348=LINE('',#904,#424);
#349=LINE('',#906,#425);
#350=LINE('',#908,#426);
#351=LINE('',#909,#427);
#352=LINE('',#912,#428);
#353=LINE('',#915,#429);
#354=LINE('',#917,#430);
#355=LINE('',#919,#431);
#356=LINE('',#921,#432);
#357=LINE('',#922,#433);
#358=LINE('',#924,#434);
#359=LINE('',#926,#435);
#360=LINE('',#929,#436);
#361=LINE('',#930,#437);
#362=LINE('',#932,#438);
#363=LINE('',#934,#439);
#364=VECTOR('',#635,1.);
#365=VECTOR('',#636,1.);
#366=VECTOR('',#637,1.);
#367=VECTOR('',#638,1.);
#368=VECTOR('',#639,1.);
#369=VECTOR('',#640,1.);
#370=VECTOR('',#641,1.);
#371=VECTOR('',#642,1.);
#372=VECTOR('',#643,1.);
#373=VECTOR('',#644,1.);
#374=VECTOR('',#645,1.);
#375=VECTOR('',#646,1.);
#376=VECTOR('',#649,1.);
#377=VECTOR('',#650,1.);
#378=VECTOR('',#651,1.);
#379=VECTOR('',#654,1.);
#380=VECTOR('',#655,1.);
#381=VECTOR('',#658,1.);
#382=VECTOR('',#659,1.);
#383=VECTOR('',#662,1.);
#384=VECTOR('',#667,1.);
#385=VECTOR('',#668,1.);
#386=VECTOR('',#669,1.);
#387=VECTOR('',#672,1.);
#388=VECTOR('',#673,1.);
#389=VECTOR('',#676,1.);
#390=VECTOR('',#677,1.);
#391=VECTOR('',#680,1.);
#392=VECTOR('',#683,1.);
#393=VECTOR('',#684,1.);
#394=VECTOR('',#685,1.);
#395=VECTOR('',#688,1.);
#396=VECTOR('',#689,1.);
#397=VECTOR('',#692,1.);
#398=VECTOR('',#693,1.);
#399=VECTOR('',#696,1.);
#400=VECTOR('',#699,1.);
#401=VECTOR('',#700,1.);
#402=VECTOR('',#701,1.);
#403=VECTOR('',#702,1.);
#404=VECTOR('',#705,1.);
#405=VECTOR('',#706,1.);
#406=VECTOR('',#707,1.);
#407=VECTOR('',#710,1.);
#408=VECTOR('',#711,1.);
#409=VECTOR('',#712,1.);
#410=VECTOR('',#715,1.);
#411=VECTOR('',#716,1.);
#412=VECTOR('',#721,1.);
#413=VECTOR('',#722,1.);
#414=VECTOR('',#723,1.);
#415=VECTOR('',#724,1.);
#416=VECTOR('',#727,1.);
#417=VECTOR('',#728,1.);
#418=VECTOR('',#729,1.);
#419=VECTOR('',#730,1.);
#420=VECTOR('',#733,1.);
#421=VECTOR('',#734,1.);
#422=VECTOR('',#735,1.);
#423=VECTOR('',#738,1.);
#424=VECTOR('',#739,1.);
#425=VECTOR('',#740,1.);
#426=VECTOR('',#743,1.);
#427=VECTOR('',#744,1.);
#428=VECTOR('',#749,1.);
#429=VECTOR('',#750,1.);
#430=VECTOR('',#751,1.);
#431=VECTOR('',#752,1.);
#432=VECTOR('',#755,1.);
#433=VECTOR('',#756,1.);
#434=VECTOR('',#759,1.);
#435=VECTOR('',#762,1.);
#436=VECTOR('',#767,1.);
#437=VECTOR('',#768,1.);
#438=VECTOR('',#771,1.);
#439=VECTOR('',#774,1.);
#440=EDGE_LOOP('',(#12,#13,#14,#15));
#441=EDGE_LOOP('',(#16,#17,#18,#19));
#442=EDGE_LOOP('',(#20,#21,#22,#23));
#443=EDGE_LOOP('',(#24,#25,#26,#27));
#444=EDGE_LOOP('',(#28,#29,#30,#31));
#445=EDGE_LOOP('',(#32,#33,#34,#35));
#446=EDGE_LOOP('',(#36,#37,#38,#39));
#447=EDGE_LOOP('',(#40,#41,#42,#43));
#448=EDGE_LOOP('',(#44,#45,#46,#47));
#449=EDGE_LOOP('',(#48,#49,#50,#51));
#450=EDGE_LOOP('',(#52,#53,#54,#55));
#451=EDGE_LOOP('',(#56,#57,#58,#59));
#452=EDGE_LOOP('',(#60,#61,#62,#63));
#453=EDGE_LOOP('',(#64,#65,#66,#67));
#454=EDGE_LOOP('',(#68,#69,#70,#71));
#455=EDGE_LOOP('',(#72,#73,#74,#75));
#456=EDGE_LOOP('',(#76,#77,#78,#79));
#457=EDGE_LOOP('',(#80,#81,#82,#83));
#458=EDGE_LOOP('',(#84,#85,#86,#87));
#459=EDGE_LOOP('',(#88,#89,#90,#91));
#460=EDGE_LOOP('',(#92,#93,#94,#95));
#461=EDGE_LOOP('',(#96,#97,#98,#99));
#462=EDGE_LOOP('',(#100,#101,#102,#103));
#463=EDGE_LOOP('',(#104,#105,#106,#107));
#464=EDGE_LOOP('',(#108,#109,#110,#111));
#465=EDGE_LOOP('',(#112,#113,#114,#115));
#466=EDGE_LOOP('',(#116,#117,#118,#119));
#467=EDGE_LOOP('',(#120,#121,#122,#123));
#468=EDGE_LOOP('',(#124,#125,#126,#127));
#469=EDGE_LOOP('',(#128,#129,#130,#131));
#470=EDGE_LOOP('',(#132,#133,#134,#135));
#471=EDGE_LOOP('',(#136,#137,#138,#139));
#472=EDGE_LOOP('',(#140,#141,#142,#143));
#473=EDGE_LOOP('',(#144,#145,#146,#147));
#474=EDGE_LOOP('',(#148,#149,#150,#151));
#475=EDGE_LOOP('',(#152,#153,#154,#155));
#476=EDGE_LOOP('',(#156,#157,#158,#159));
#477=EDGE_LOOP('',(#160,#161,#162,#163));
#478=FACE_BOUND('',#440,.T.);
#479=FACE_BOUND('',#441,.T.);
#480=FACE_BOUND('',#442,.T.);
#481=FACE_BOUND('',#443,.T.);
#482=FACE_BOUND('',#444,.T.);
#483=FACE_BOUND('',#445,.T.);
#484=FACE_BOUND('',#446,.T.);
#485=FACE_BOUND('',#447,.T.);
#486=FACE_BOUND('',#448,.T.);
#487=FACE_BOUND('',#449,.T.);
#488=FACE_BOUND('',#450,.T.);
#489=FACE_BOUND('',#451,.T.);
#490=FACE_BOUND('',#452,.T.);
#491=FACE_BOUND('',#453,.T.);
#492=FACE_BOUND('',#454,.T.);
#493=FACE_BOUND('',#455,.T.);
#494=FACE_BOUND('',#456,.T.);
#495=FACE_BOUND('',#457,.T.);
#496=FACE_BOUND('',#458,.T.);
#497=FACE_BOUND('',#459,.T.);
#498=FACE_BOUND('',#460,.T.);
#499=FACE_BOUND('',#461,.T.);
#500=FACE_BOUND('',#462,.T.);
#501=FACE_BOUND('',#463,.T.);
#502=FACE_BOUND('',#464,.T.);
#503=FACE_BOUND('',#465,.T.);
#504=FACE_BOUND('',#466,.T.);
#505=FACE_BOUND('',#467,.T.);
#506=FACE_BOUND('',#468,.T.);
#507=FACE_BOUND('',#469,.T.);
#508=FACE_BOUND('',#470,.T.);
#509=FACE_BOUND('',#471,.T.);
#510=FACE_BOUND('',#472,.T.);
#511=FACE_BOUND('',#473,.T.);
#512=FACE_BOUND('',#474,.T.);
#513=FACE_BOUND('',#475,.T.);
#514=FACE_BOUND('',#476,.T.);
#515=FACE_BOUND('',#477,.T.);
#516=PLANE('',#597);
#517=PLANE('',#598);
#518=PLANE('',#599);
#519=PLANE('',#600);
#520=PLANE('',#601);
#521=PLANE('',#602);
#522=PLANE('',#603);
#523=PLANE('',#604);
#524=PLANE('',#605);
#525=PLANE('',#606);
#526=PLANE('',#607);
#527=PLANE('',#608);
#528=PLANE('',#609);
#529=PLANE('',#610);
#530=PLANE('',#611);
#531=PLANE('',#612);
#532=PLANE('',#613);
#533=PLANE('',#614);
#534=PLANE('',#615);
#535=PLANE('',#616);
#536=PLANE('',#617);
#537=PLANE('',#618);
#538=PLANE('',#619);
#539=PLANE('',#620);
#540=PLANE('',#621);
#541=PLANE('',#622);
#542=PLANE('',#623);
#543=PLANE('',#624);
#544=PLANE('',#625);
#545=PLANE('',#626);
#546=PLANE('',#627);
#547=PLANE('',#628);
#548=PLANE('',#629);
#549=PLANE('',#630);
#550=ADVANCED_FACE('',(#478,#479,#480),#516,.T.);
#551=ADVANCED_FACE('',(#481),#517,.T.);
#552=ADVANCED_FACE('',(#482),#518,.F.);
#553=ADVANCED_FACE('',(#483),#519,.F.);
#554=ADVANCED_FACE('',(#484),#520,.T.);
#555=ADVANCED_FACE('',(#485),#521,.F.);
#556=ADVANCED_FACE('',(#486),#522,.T.);
#557=ADVANCED_FACE('',(#487),#523,.F.);
#558=ADVANCED_FACE('',(#488),#524,.F.);
#559=ADVANCED_FACE('',(#489),#525,.T.);
#560=ADVANCED_FACE('',(#490),#526,.T.);
#561=ADVANCED_FACE('',(#491),#527,.F.);
#562=ADVANCED_FACE('',(#492),#528,.F.);
#563=ADVANCED_FACE('',(#493),#529,.T.);
#564=ADVANCED_FACE('',(#494),#530,.T.);
#565=ADVANCED_FACE('',(#495),#531,.F.);
#566=ADVANCED_FACE('',(#496),#532,.F.);
#567=ADVANCED_FACE('',(#497),#533,.T.);
#568=ADVANCED_FACE('',(#498),#534,.T.);
#569=ADVANCED_FACE('',(#499,#500),#535,.F.);
#570=ADVANCED_FACE('',(#501),#536,.T.);
#571=ADVANCED_FACE('',(#502),#537,.F.);
#572=ADVANCED_FACE('',(#503),#538,.F.);
#573=ADVANCED_FACE('',(#504),#539,.T.);
#574=ADVANCED_FACE('',(#505),#540,.T.);
#575=ADVANCED_FACE('',(#506,#507),#541,.F.);
#576=ADVANCED_FACE('',(#508),#542,.T.);
#577=ADVANCED_FACE('',(#509),#543,.F.);
#578=ADVANCED_FACE('',(#510),#544,.T.);
#579=ADVANCED_FACE('',(#511),#545,.F.);
#580=ADVANCED_FACE('',(#512),#546,.F.);
#581=ADVANCED_FACE('',(#513),#547,.T.);
#582=ADVANCED_FACE('',(#514),#548,.F.);
#583=ADVANCED_FACE('',(#515),#549,.T.);
#584=CLOSED_SHELL('',(#550,#551,#552,#553,#554,#555,#556,#557,#558,#559,
#560,#561,#562,#563,#564,#565,#566,#567,#568,#569,#570,#571,#572,#573,#574,
#575,#576,#577,#578,#579,#580,#581,#582,#583));
#585=STYLED_ITEM('',(#586),#593);
#586=PRESENTATION_STYLE_ASSIGNMENT((#587));
#587=SURFACE_STYLE_USAGE(.BOTH.,#588);
#588=SURFACE_SIDE_STYLE('',(#589));
#589=SURFACE_STYLE_FILL_AREA(#590);
#590=FILL_AREA_STYLE('',(#591));
#591=FILL_AREA_STYLE_COLOUR('',#592);
#592=COLOUR_RGB('',0.615686274509804,0.811764705882353,0.929411764705882);
#593=MANIFOLD_SOLID_BREP('Part 1',#584);
#594=SHAPE_DEFINITION_REPRESENTATION(#942,#595);
#595=SHAPE_REPRESENTATION('Part 1',(#596),#937);
#596=AXIS2_PLACEMENT_3D('',#777,#631,#632);
#597=AXIS2_PLACEMENT_3D('',#778,#633,#634);
#598=AXIS2_PLACEMENT_3D('',#803,#647,#648);
#599=AXIS2_PLACEMENT_3D('',#809,#652,#653);
#600=AXIS2_PLACEMENT_3D('',#813,#656,#657);
#601=AXIS2_PLACEMENT_3D('',#817,#660,#661);
#602=AXIS2_PLACEMENT_3D('',#819,#663,#664);
#603=AXIS2_PLACEMENT_3D('',#820,#665,#666);
#604=AXIS2_PLACEMENT_3D('',#826,#670,#671);
#605=AXIS2_PLACEMENT_3D('',#830,#674,#675);
#606=AXIS2_PLACEMENT_3D('',#834,#678,#679);
#607=AXIS2_PLACEMENT_3D('',#836,#681,#682);
#608=AXIS2_PLACEMENT_3D('',#842,#686,#687);
#609=AXIS2_PLACEMENT_3D('',#846,#690,#691);
#610=AXIS2_PLACEMENT_3D('',#850,#694,#695);
#611=AXIS2_PLACEMENT_3D('',#852,#697,#698);
#612=AXIS2_PLACEMENT_3D('',#861,#703,#704);
#613=AXIS2_PLACEMENT_3D('',#867,#708,#709);
#614=AXIS2_PLACEMENT_3D('',#873,#713,#714);
#615=AXIS2_PLACEMENT_3D('',#876,#717,#718);
#616=AXIS2_PLACEMENT_3D('',#877,#719,#720);
#617=AXIS2_PLACEMENT_3D('',#886,#725,#726);
#618=AXIS2_PLACEMENT_3D('',#895,#731,#732);
#619=AXIS2_PLACEMENT_3D('',#901,#736,#737);
#620=AXIS2_PLACEMENT_3D('',#907,#741,#742);
#621=AXIS2_PLACEMENT_3D('',#910,#745,#746);
#622=AXIS2_PLACEMENT_3D('',#911,#747,#748);
#623=AXIS2_PLACEMENT_3D('',#920,#753,#754);
#624=AXIS2_PLACEMENT_3D('',#923,#757,#758);
#625=AXIS2_PLACEMENT_3D('',#925,#760,#761);
#626=AXIS2_PLACEMENT_3D('',#927,#763,#764);
#627=AXIS2_PLACEMENT_3D('',#928,#765,#766);
#628=AXIS2_PLACEMENT_3D('',#931,#769,#770);
#629=AXIS2_PLACEMENT_3D('',#933,#772,#773);
#630=AXIS2_PLACEMENT_3D('',#935,#775,#776);
#631=DIRECTION('',(0.,0.,1.));
#632=DIRECTION('',(1.,0.,0.));
#633=DIRECTION('',(0.,0.,1.));
#634=DIRECTION('',(1.,0.,0.));
#635=DIRECTION('',(-1.,0.,0.));
#636=DIRECTION('',(6.04433266890874E-17,1.,0.));
#637=DIRECTION('',(-1.,0.,0.));
#638=DIRECTION('',(6.04433266890874E-17,1.,0.));
#639=DIRECTION('',(-1.,0.,0.));
#640=DIRECTION('',(1.7347234759768E-16,-1.,0.));
#641=DIRECTION('',(-1.,0.,0.));
#642=DIRECTION('',(1.7347234759768E-16,-1.,0.));
#643=DIRECTION('',(1.7347234759768E-16,1.,0.));
#644=DIRECTION('',(-1.,0.,0.));
#645=DIRECTION('',(1.7347234759768E-16,1.,0.));
#646=DIRECTION('',(-1.,0.,0.));
#647=DIRECTION('',(0.,-1.,0.));
#648=DIRECTION('',(0.,0.,-1.));
#649=DIRECTION('',(-1.,0.,0.));
#650=DIRECTION('',(0.,0.,-1.));
#651=DIRECTION('',(0.,0.,-1.));
#652=DIRECTION('',(-1.,6.04433266890874E-17,0.));
#653=DIRECTION('',(-6.04433266890874E-17,-1.,0.));
#654=DIRECTION('',(6.04433266890874E-17,1.,0.));
#655=DIRECTION('',(0.,0.,-1.));
#656=DIRECTION('',(0.,-1.,0.));
#657=DIRECTION('',(0.,0.,-1.));
#658=DIRECTION('',(-1.,0.,0.));
#659=DIRECTION('',(0.,0.,-1.));
#660=DIRECTION('',(-1.,6.04433266890874E-17,0.));
#661=DIRECTION('',(-6.04433266890874E-17,-1.,0.));
#662=DIRECTION('',(6.04433266890874E-17,1.,0.));
#663=DIRECTION('',(0.,0.,1.));
#664=DIRECTION('',(1.,0.,0.));
#665=DIRECTION('',(1.,1.7347234759768E-16,0.));
#666=DIRECTION('',(-1.7347234759768E-16,1.,0.));
#667=DIRECTION('',(0.,0.,-1.));
#668=DIRECTION('',(1.7347234759768E-16,-1.,0.));
#669=DIRECTION('',(0.,0.,-1.));
#670=DIRECTION('',(0.,-1.,0.));
#671=DIRECTION('',(0.,0.,-1.));
#672=DIRECTION('',(0.,0.,-1.));
#673=DIRECTION('',(-1.,0.,0.));
#674=DIRECTION('',(1.,1.7347234759768E-16,0.));
#675=DIRECTION('',(-1.7347234759768E-16,1.,0.));
#676=DIRECTION('',(0.,0.,-1.));
#677=DIRECTION('',(1.7347234759768E-16,-1.,0.));
#678=DIRECTION('',(0.,-1.,0.));
#679=DIRECTION('',(0.,0.,-1.));
#680=DIRECTION('',(-1.,0.,0.));
#681=DIRECTION('',(0.,-1.,0.));
#682=DIRECTION('',(0.,0.,-1.));
#683=DIRECTION('',(0.,0.,-1.));
#684=DIRECTION('',(-1.,0.,0.));
#685=DIRECTION('',(0.,0.,-1.));
#686=DIRECTION('',(-1.,1.7347234759768E-16,0.));
#687=DIRECTION('',(-1.7347234759768E-16,-1.,0.));
#688=DIRECTION('',(0.,0.,-1.));
#689=DIRECTION('',(1.7347234759768E-16,1.,0.));
#690=DIRECTION('',(0.,-1.,0.));
#691=DIRECTION('',(0.,0.,-1.));
#692=DIRECTION('',(0.,0.,-1.));
#693=DIRECTION('',(-1.,0.,0.));
#694=DIRECTION('',(-1.,1.7347234759768E-16,0.));
#695=DIRECTION('',(-1.7347234759768E-16,-1.,0.));
#696=DIRECTION('',(1.7347234759768E-16,1.,0.));
#697=DIRECTION('',(1.,0.,0.));
#698=DIRECTION('',(0.,0.,-1.));
#699=DIRECTION('',(0.,0.,-1.));
#700=DIRECTION('',(0.,1.,0.));
#701=DIRECTION('',(0.,0.,-1.));
#702=DIRECTION('',(0.,-1.,0.));
#703=DIRECTION('',(0.,-1.,0.));
#704=DIRECTION('',(0.,0.,-1.));
#705=DIRECTION('',(-1.,0.,0.));
#706=DIRECTION('',(0.,0.,-1.));
#707=DIRECTION('',(-1.,0.,0.));
#708=DIRECTION('',(1.,0.,0.));
#709=DIRECTION('',(0.,0.,-1.));
#710=DIRECTION('',(0.,-1.,0.));
#711=DIRECTION('',(0.,0.,-1.));
#712=DIRECTION('',(0.,-1.,0.));
#713=DIRECTION('',(0.,-1.,0.));
#714=DIRECTION('',(0.,0.,-1.));
#715=DIRECTION('',(1.,0.,0.));
#716=DIRECTION('',(-1.,0.,0.));
#717=DIRECTION('',(0.,0.,1.));
#718=DIRECTION('',(1.,0.,0.));
#719=DIRECTION('',(0.,0.,1.));
#720=DIRECTION('',(1.,0.,0.));
#721=DIRECTION('',(-1.,0.,0.));
#722=DIRECTION('',(0.,1.,0.));
#723=DIRECTION('',(1.,0.,0.));
#724=DIRECTION('',(0.,-1.,0.));
#725=DIRECTION('',(0.,-1.,0.));
#726=DIRECTION('',(0.,0.,-1.));
#727=DIRECTION('',(0.,0.,-1.));
#728=DIRECTION('',(1.,0.,0.));
#729=DIRECTION('',(0.,0.,-1.));
#730=DIRECTION('',(-1.,0.,0.));
#731=DIRECTION('',(-1.,0.,0.));
#732=DIRECTION('',(0.,0.,1.));
#733=DIRECTION('',(0.,1.,0.));
#734=DIRECTION('',(0.,0.,-1.));
#735=DIRECTION('',(0.,1.,0.));
#736=DIRECTION('',(0.,-1.,0.));
#737=DIRECTION('',(0.,0.,-1.));
#738=DIRECTION('',(-1.,0.,0.));
#739=DIRECTION('',(0.,0.,-1.));
#740=DIRECTION('',(-1.,0.,0.));
#741=DIRECTION('',(-1.,0.,0.));
#742=DIRECTION('',(0.,0.,1.));
#743=DIRECTION('',(0.,-1.,0.));
#744=DIRECTION('',(0.,1.,0.));
#745=DIRECTION('',(0.,0.,1.));
#746=DIRECTION('',(1.,0.,0.));
#747=DIRECTION('',(0.,0.,1.));
#748=DIRECTION('',(1.,0.,0.));
#749=DIRECTION('',(-1.,0.,0.));
#750=DIRECTION('',(0.,1.,0.));
#751=DIRECTION('',(1.,0.,0.));
#752=DIRECTION('',(0.,-1.,0.));
#753=DIRECTION('',(0.707106781186547,0.,-0.707106781186548));
#754=DIRECTION('',(0.,1.,0.));
#755=DIRECTION('',(-0.577350269189626,0.577350269189626,-0.577350269189626));
#756=DIRECTION('',(0.577350269189626,0.577350269189626,0.577350269189626));
#757=DIRECTION('',(0.,-0.707106781186547,0.707106781186548));
#758=DIRECTION('',(-1.,0.,0.));
#759=DIRECTION('',(-0.577350269189626,0.577350269189626,0.577350269189626));
#760=DIRECTION('',(0.,-0.707106781186547,-0.707106781186548));
#761=DIRECTION('',(1.,0.,0.));
#762=DIRECTION('',(-0.577350269189626,-0.577350269189626,0.577350269189626));
#763=DIRECTION('',(0.707106781186547,0.,0.707106781186548));
#764=DIRECTION('',(0.,-1.,0.));
#765=DIRECTION('',(-0.707106781186547,0.,0.707106781186548));
#766=DIRECTION('',(0.,1.,0.));
#767=DIRECTION('',(-0.577350269189626,-0.577350269189626,-0.577350269189626));
#768=DIRECTION('',(0.577350269189626,-0.577350269189626,0.577350269189626));
#769=DIRECTION('',(0.,-0.707106781186547,-0.707106781186548));
#770=DIRECTION('',(1.,0.,0.));
#771=DIRECTION('',(0.577350269189626,0.577350269189626,-0.577350269189626));
#772=DIRECTION('',(0.,-0.707106781186547,0.707106781186548));
#773=DIRECTION('',(-1.,0.,0.));
#774=DIRECTION('',(0.577350269189626,-0.577350269189626,-0.577350269189626));
#775=DIRECTION('',(-0.707106781186547,0.,-0.707106781186548));
#776=DIRECTION('',(0.,-1.,0.));
#777=CARTESIAN_POINT('',(0.,0.,0.));
#778=CARTESIAN_POINT('',(0.,0.,0.004));
#779=CARTESIAN_POINT('',(-3.46944695195361E-18,-0.0574,0.004));
#780=CARTESIAN_POINT('',(0.0214,-0.0574,0.004));
#781=CARTESIAN_POINT('',(-0.0214,-0.0574,0.004));
#782=CARTESIAN_POINT('',(0.0214,0.,0.004));
#783=CARTESIAN_POINT('',(0.0214,0.0574,0.004));
#784=CARTESIAN_POINT('',(3.46944695195361E-18,0.0574,0.004));
#785=CARTESIAN_POINT('',(-0.0214,0.0574,0.004));
#786=CARTESIAN_POINT('',(-0.0214,0.,0.004));
#787=CARTESIAN_POINT('',(0.,0.0452180440723896,0.004));
#788=CARTESIAN_POINT('',(0.0075,0.0452180440723896,0.004));
#789=CARTESIAN_POINT('',(-0.0075,0.0452180440723896,0.004));
#790=CARTESIAN_POINT('',(0.0075,0.0402180440723896,0.004));
#791=CARTESIAN_POINT('',(0.0075,0.0352180440723896,0.004));
#792=CARTESIAN_POINT('',(1.7347234759768E-18,0.0352180440723896,0.004));
#793=CARTESIAN_POINT('',(-0.0075,0.0352180440723896,0.004));
#794=CARTESIAN_POINT('',(-0.0075,0.0402180440723896,0.004));
#795=CARTESIAN_POINT('',(0.0075,-0.0402180440723896,0.004));
#796=CARTESIAN_POINT('',(0.0075,-0.0452180440723896,0.004));
#797=CARTESIAN_POINT('',(0.0075,-0.0352180440723896,0.004));
#798=CARTESIAN_POINT('',(0.,-0.0452180440723896,0.004));
#799=CARTESIAN_POINT('',(-0.0075,-0.0452180440723896,0.004));
#800=CARTESIAN_POINT('',(-0.0075,-0.0402180440723896,0.004));
#801=CARTESIAN_POINT('',(-0.0075,-0.0352180440723896,0.004));
#802=CARTESIAN_POINT('',(1.7347234759768E-18,-0.0352180440723896,0.004));
#803=CARTESIAN_POINT('',(-3.46944695195361E-18,-0.0574,0.004));
#804=CARTESIAN_POINT('',(-3.46944695195361E-18,-0.0574,0.));
#805=CARTESIAN_POINT('',(0.0214,-0.0574,0.));
#806=CARTESIAN_POINT('',(-0.0214,-0.0574,0.));
#807=CARTESIAN_POINT('',(0.0214,-0.0574,0.004));
#808=CARTESIAN_POINT('',(-0.0214,-0.0574,0.004));
#809=CARTESIAN_POINT('',(0.0214,0.,0.004));
#810=CARTESIAN_POINT('',(0.0214,0.,0.));
#811=CARTESIAN_POINT('',(0.0214,0.0574,0.));
#812=CARTESIAN_POINT('',(0.0214,0.0574,0.004));
#813=CARTESIAN_POINT('',(3.46944695195361E-18,0.0574,0.004));
#814=CARTESIAN_POINT('',(3.46944695195361E-18,0.0574,0.));
#815=CARTESIAN_POINT('',(-0.0214,0.0574,0.));
#816=CARTESIAN_POINT('',(-0.0214,0.0574,0.004));
#817=CARTESIAN_POINT('',(-0.0214,0.,0.004));
#818=CARTESIAN_POINT('',(-0.0214,0.,0.));
#819=CARTESIAN_POINT('',(0.,0.,0.));
#820=CARTESIAN_POINT('',(0.0075,0.0402180440723896,0.009));
#821=CARTESIAN_POINT('',(0.0075,0.0452180440723896,0.009));
#822=CARTESIAN_POINT('',(0.0075,0.0452180440723896,0.009));
#823=CARTESIAN_POINT('',(0.0075,0.0402180440723896,0.009));
#824=CARTESIAN_POINT('',(0.0075,0.0352180440723896,0.009));
#825=CARTESIAN_POINT('',(0.0075,0.0352180440723896,0.009));
#826=CARTESIAN_POINT('',(0.,0.0452180440723896,0.009));
#827=CARTESIAN_POINT('',(-0.0075,0.0452180440723896,0.009));
#828=CARTESIAN_POINT('',(-0.0075,0.0452180440723896,0.009));
#829=CARTESIAN_POINT('',(0.,0.0452180440723896,0.009));
#830=CARTESIAN_POINT('',(-0.0075,0.0402180440723896,0.009));
#831=CARTESIAN_POINT('',(-0.0075,0.0352180440723896,0.009));
#832=CARTESIAN_POINT('',(-0.0075,0.0352180440723896,0.009));
#833=CARTESIAN_POINT('',(-0.0075,0.0402180440723896,0.009));
#834=CARTESIAN_POINT('',(1.7347234759768E-18,0.0352180440723896,0.009));
#835=CARTESIAN_POINT('',(1.7347234759768E-18,0.0352180440723896,0.009));
#836=CARTESIAN_POINT('',(0.,-0.0452180440723896,0.009));
#837=CARTESIAN_POINT('',(0.0075,-0.0452180440723896,0.009));
#838=CARTESIAN_POINT('',(0.0075,-0.0452180440723896,0.009));
#839=CARTESIAN_POINT('',(0.,-0.0452180440723896,0.009));
#840=CARTESIAN_POINT('',(-0.0075,-0.0452180440723896,0.009));
#841=CARTESIAN_POINT('',(-0.0075,-0.0452180440723896,0.009));
#842=CARTESIAN_POINT('',(0.0075,-0.0402180440723896,0.009));
#843=CARTESIAN_POINT('',(0.0075,-0.0352180440723896,0.009));
#844=CARTESIAN_POINT('',(0.0075,-0.0352180440723896,0.009));
#845=CARTESIAN_POINT('',(0.0075,-0.0402180440723896,0.009));
#846=CARTESIAN_POINT('',(1.7347234759768E-18,-0.0352180440723896,0.009));
#847=CARTESIAN_POINT('',(-0.0075,-0.0352180440723896,0.009));
#848=CARTESIAN_POINT('',(-0.0075,-0.0352180440723896,0.009));
#849=CARTESIAN_POINT('',(1.7347234759768E-18,-0.0352180440723896,0.009));
#850=CARTESIAN_POINT('',(-0.0075,-0.0402180440723896,0.009));
#851=CARTESIAN_POINT('',(-0.0075,-0.0402180440723896,0.009));
#852=CARTESIAN_POINT('',(0.01,-0.0402180440723896,0.012));
#853=CARTESIAN_POINT('',(0.01,-0.0477180440723896,0.012));
#854=CARTESIAN_POINT('',(0.01,-0.0477180440723896,0.012));
#855=CARTESIAN_POINT('',(0.01,-0.0477180440723896,0.011));
#856=CARTESIAN_POINT('',(0.01,-0.0327180440723896,0.011));
#857=CARTESIAN_POINT('',(0.01,-0.0327180440723896,0.011));
#858=CARTESIAN_POINT('',(0.01,-0.0327180440723896,0.012));
#859=CARTESIAN_POINT('',(0.01,-0.0327180440723896,0.012));
#860=CARTESIAN_POINT('',(0.01,-0.0402180440723896,0.012));
#861=CARTESIAN_POINT('',(0.,-0.0327180440723896,0.012));
#862=CARTESIAN_POINT('',(0.,-0.0327180440723896,0.011));
#863=CARTESIAN_POINT('',(-0.01,-0.0327180440723896,0.011));
#864=CARTESIAN_POINT('',(-0.01,-0.0327180440723896,0.012));
#865=CARTESIAN_POINT('',(-0.01,-0.0327180440723896,0.012));
#866=CARTESIAN_POINT('',(0.,-0.0327180440723896,0.012));
#867=CARTESIAN_POINT('',(-0.01,-0.0402180440723896,0.012));
#868=CARTESIAN_POINT('',(-0.01,-0.0402180440723896,0.011));
#869=CARTESIAN_POINT('',(-0.01,-0.0477180440723896,0.011));
#870=CARTESIAN_POINT('',(-0.01,-0.0477180440723896,0.012));
#871=CARTESIAN_POINT('',(-0.01,-0.0477180440723896,0.012));
#872=CARTESIAN_POINT('',(-0.01,-0.0402180440723896,0.012));
#873=CARTESIAN_POINT('',(0.,-0.0477180440723896,0.012));
#874=CARTESIAN_POINT('',(0.01,-0.0477180440723896,0.011));
#875=CARTESIAN_POINT('',(0.,-0.0477180440723896,0.012));
#876=CARTESIAN_POINT('',(0.,0.,0.012));
#877=CARTESIAN_POINT('',(0.,0.,0.009));
#878=CARTESIAN_POINT('',(-0.01,-0.0457180440723896,0.009));
#879=CARTESIAN_POINT('',(0.008,-0.0457180440723896,0.009));
#880=CARTESIAN_POINT('',(-0.008,-0.0457180440723896,0.009));
#881=CARTESIAN_POINT('',(-0.008,0.,0.009));
#882=CARTESIAN_POINT('',(-0.008,-0.0347180440723896,0.009));
#883=CARTESIAN_POINT('',(0.,-0.0347180440723896,0.009));
#884=CARTESIAN_POINT('',(0.008,-0.0347180440723896,0.009));
#885=CARTESIAN_POINT('',(0.008,-0.0477180440723896,0.009));
#886=CARTESIAN_POINT('',(0.,0.0327180440723896,0.012));
#887=CARTESIAN_POINT('',(-0.01,0.0327180440723896,0.012));
#888=CARTESIAN_POINT('',(-0.01,0.0327180440723896,0.012));
#889=CARTESIAN_POINT('',(-0.01,0.0327180440723896,0.011));
#890=CARTESIAN_POINT('',(0.01,0.0327180440723896,0.011));
#891=CARTESIAN_POINT('',(0.01,0.0327180440723896,0.011));
#892=CARTESIAN_POINT('',(0.01,0.0327180440723896,0.012));
#893=CARTESIAN_POINT('',(0.01,0.0327180440723896,0.012));
#894=CARTESIAN_POINT('',(0.,0.0327180440723896,0.012));
#895=CARTESIAN_POINT('',(0.01,0.0402180440723896,0.012));
#896=CARTESIAN_POINT('',(0.01,0.0402180440723896,0.011));
#897=CARTESIAN_POINT('',(0.01,0.0477180440723896,0.011));
#898=CARTESIAN_POINT('',(0.01,0.0477180440723896,0.012));
#899=CARTESIAN_POINT('',(0.01,0.0477180440723896,0.012));
#900=CARTESIAN_POINT('',(0.01,0.0402180440723896,0.012));
#901=CARTESIAN_POINT('',(0.,0.0477180440723896,0.012));
#902=CARTESIAN_POINT('',(0.,0.0477180440723896,0.011));
#903=CARTESIAN_POINT('',(-0.01,0.0477180440723896,0.011));
#904=CARTESIAN_POINT('',(-0.01,0.0477180440723896,0.012));
#905=CARTESIAN_POINT('',(-0.01,0.0477180440723896,0.012));
#906=CARTESIAN_POINT('',(0.,0.0477180440723896,0.012));
#907=CARTESIAN_POINT('',(-0.01,0.0402180440723896,0.012));
#908=CARTESIAN_POINT('',(-0.01,0.0327180440723896,0.011));
#909=CARTESIAN_POINT('',(-0.01,0.0402180440723896,0.012));
#910=CARTESIAN_POINT('',(0.,0.,0.012));
#911=CARTESIAN_POINT('',(0.,0.,0.009));
#912=CARTESIAN_POINT('',(-0.01,0.0347180440723896,0.009));
#913=CARTESIAN_POINT('',(0.008,0.0347180440723896,0.009));
#914=CARTESIAN_POINT('',(-0.008,0.0347180440723896,0.009));
#915=CARTESIAN_POINT('',(-0.008,0.0477180440723896,0.009));
#916=CARTESIAN_POINT('',(-0.008,0.0457180440723896,0.009));
#917=CARTESIAN_POINT('',(0.,0.0457180440723896,0.009));
#918=CARTESIAN_POINT('',(0.008,0.0457180440723896,0.009));
#919=CARTESIAN_POINT('',(0.008,0.,0.009));
#920=CARTESIAN_POINT('',(0.008,0.,0.009));
#921=CARTESIAN_POINT('',(-0.00723934802412988,-0.0304786960482597,-0.00623934802412986));
#922=CARTESIAN_POINT('',(0.00666666666666667,-0.036051377405723,0.00766666666666667));
#923=CARTESIAN_POINT('',(0.,-0.0327180440723896,0.011));
#924=CARTESIAN_POINT('',(-0.00666666666666667,-0.036051377405723,0.00766666666666667));
#925=CARTESIAN_POINT('',(0.,-0.0457180440723896,0.009));
#926=CARTESIAN_POINT('',(-0.00533333333333333,-0.043051377405723,0.00633333333333334));
#927=CARTESIAN_POINT('',(-0.01,-0.0402180440723896,0.011));
#928=CARTESIAN_POINT('',(0.01,0.0402180440723896,0.011));
#929=CARTESIAN_POINT('',(0.00666666666666667,0.0443847107390563,0.00766666666666667));
#930=CARTESIAN_POINT('',(0.0075,0.0352180440723896,0.0085));
#931=CARTESIAN_POINT('',(0.,0.0347180440723896,0.009));
#932=CARTESIAN_POINT('',(-0.00533333333333333,0.0373847107390562,0.00633333333333334));
#933=CARTESIAN_POINT('',(0.,0.0477180440723896,0.011));
#934=CARTESIAN_POINT('',(-0.00666666666666667,0.0443847107390563,0.00766666666666667));
#935=CARTESIAN_POINT('',(-0.008,0.,0.009));
#936=MECHANICAL_DESIGN_GEOMETRIC_PRESENTATION_REPRESENTATION('',(#585),
#937);
#937=(
GEOMETRIC_REPRESENTATION_CONTEXT(3)
GLOBAL_UNCERTAINTY_ASSIGNED_CONTEXT((#938))
GLOBAL_UNIT_ASSIGNED_CONTEXT((#941,#940,#939))
REPRESENTATION_CONTEXT('Part 1','TOP_LEVEL_ASSEMBLY_PART')
);
#938=UNCERTAINTY_MEASURE_WITH_UNIT(LENGTH_MEASURE(1.E-8),#941,
'DISTANCE_ACCURACY_VALUE','Maximum Tolerance applied to model');
#939=(
NAMED_UNIT(*)
SI_UNIT($,.STERADIAN.)
SOLID_ANGLE_UNIT()
);
#940=(
NAMED_UNIT(*)
PLANE_ANGLE_UNIT()
SI_UNIT($,.RADIAN.)
);
#941=(
LENGTH_UNIT()
NAMED_UNIT(*)
SI_UNIT($,.METRE.)
);
#942=PRODUCT_DEFINITION_SHAPE('','',#943);
#943=PRODUCT_DEFINITION('','',#945,#944);
#944=PRODUCT_DEFINITION_CONTEXT('',#951,'design');
#945=PRODUCT_DEFINITION_FORMATION_WITH_SPECIFIED_SOURCE('','',#947,
 .NOT_KNOWN.);
#946=PRODUCT_RELATED_PRODUCT_CATEGORY('','',(#947));
#947=PRODUCT('Part 1','Part 1','Part 1',(#949));
#948=PRODUCT_CATEGORY('','');
#949=PRODUCT_CONTEXT('',#951,'mechanical');
#950=APPLICATION_PROTOCOL_DEFINITION('international standard',
'ap242_managed_model_based_3d_engineering',2020,#951);
#951=APPLICATION_CONTEXT('managed model based 3d engineering');
ENDSEC;
END-ISO-10303-21;
